<svg width="32" height="32" viewBox="0 0 32 32" fill="none" xmlns="http://www.w3.org/2000/svg">
<path d="M22 9.00002C21.9063 9.09298 21.8319 9.20359 21.7811 9.32545C21.7303 9.4473 21.7042 9.57801 21.7042 9.71002C21.7042 9.84203 21.7303 9.97274 21.7811 10.0946C21.8319 10.2165 21.9063 10.3271 22 10.42L26.6 15.02H3.06C2.79478 15.02 2.54043 15.1254 2.35289 15.3129C2.16535 15.5005 2.06 15.7548 2.06 16.02C2.06 16.2852 2.16535 16.5396 2.35289 16.7271C2.54043 16.9147 2.79478 17.02 3.06 17.02H26.58L22 21.59C21.8137 21.7774 21.7092 22.0308 21.7092 22.295C21.7092 22.5592 21.8137 22.8127 22 23C22.1874 23.1863 22.4408 23.2908 22.705 23.2908C22.9692 23.2908 23.2226 23.1863 23.41 23L29.77 16.64C29.8556 16.5579 29.9237 16.4593 29.9702 16.3502C30.0168 16.2411 30.0408 16.1237 30.0408 16.005C30.0408 15.8864 30.0168 15.769 29.9702 15.6599C29.9237 15.5507 29.8556 15.4522 29.77 15.37L23.42 9.00002C23.327 8.90629 23.2164 8.8319 23.0946 8.78113C22.9727 8.73036 22.842 8.70422 22.71 8.70422C22.578 8.70422 22.4473 8.73036 22.3254 8.78113C22.2036 8.8319 22.093 8.90629 22 9.00002Z" fill="black"/>
</svg>
